<?xml version="1.0" encoding="UTF-8"?>
<svg id="Layer_1" data-name="Layer 1" xmlns="http://www.w3.org/2000/svg" version="1.1" viewBox="0 0 64 64">
  <defs>
    <style>
      .cls-1 {
        fill: #231f20;
      }

      .cls-1, .cls-2 {
        stroke-width: 0px;
      }

      .cls-2 {
        fill: #fff;
      }
    </style>
  </defs>
  <circle class="cls-1" cx="32" cy="32" r="32"/>
  <g>
    <path class="cls-2" d="M19.5,25.7c-1.7,0-3.1,1.4-3.1,3.1v15.7c0,1.7,1.4,3.1,3.1,3.1s3.1-1.4,3.1-3.1v-15.7c0-1.7-1.4-3.1-3.1-3.1Z"/>
    <path class="cls-2" d="M19.5,16.3c-1.7,0-3.1,1.4-3.1,3.2s1.4,3.1,3.1,3.1,3.1-1.4,3.1-3.1h0c0-1.8-1.4-3.2-3.1-3.2Z"/>
    <path class="cls-2" d="M38.3,25.7c-1.5,0-2.8.4-4,.9-.6-.6-1.4-.9-2.2-.9-1.7,0-3.1,1.4-3.1,3.1v15.7c0,1.7,1.4,3.1,3.1,3.1s3.1-1.4,3.1-3.1v-9.4c0-1.7,1.4-3.1,3.1-3.1s3.1,1.4,3.1,3.1v9.4c0,1.7,1.4,3.1,3.1,3.1s3.1-1.4,3.1-3.1v-9.4c0-5.2-4.2-9.4-9.4-9.4Z"/>
  </g>
</svg>