<?xml version="1.0" encoding="UTF-8"?>
<svg id="Layer_1" data-name="Layer 1" xmlns="http://www.w3.org/2000/svg" version="1.1" viewBox="0 0 64 64">
  <defs>
    <style>
      .cls-1 {
        stroke-width: 2px;
      }

      .cls-1, .cls-2, .cls-3 {
        fill: none;
      }

      .cls-1, .cls-3 {
        stroke: #fff;
        stroke-linecap: round;
        stroke-linejoin: round;
      }

      .cls-2, .cls-4 {
        stroke-width: 0px;
      }

      .cls-4 {
        fill: #231f20;
      }

      .cls-3 {
        stroke-width: 3px;
      }
    </style>
  </defs>
  <circle class="cls-4" cx="32" cy="32" r="32"/>
  <path class="cls-2" d="M20,20h24v24h-24v-24Z"/>
  <g>
    <path class="cls-1" d="M15.5,23.7c0-4.6,3.7-8.3,8.3-8.3h16.5c4.6,0,8.3,3.7,8.3,8.3v16.5c0,4.6-3.7,8.3-8.3,8.3h-16.5c-4.6,0-8.3-3.7-8.3-8.3v-16.5Z"/>
    <path class="cls-1" d="M25.8,32c0,3.4,2.8,6.2,6.2,6.2s6.2-2.8,6.2-6.2-2.8-6.2-6.2-6.2-6.2,2.8-6.2,6.2"/>
    <path class="cls-3" d="M41.3,22.7h0"/>
  </g>
</svg>