<?xml version="1.0" encoding="UTF-8"?>
<svg id="Layer_1" data-name="Layer 1" xmlns="http://www.w3.org/2000/svg" version="1.1" xmlns:xlink="http://www.w3.org/1999/xlink" viewBox="0 0 250 250">
  <defs>
    <style>
      .cls-1 {
        fill: url(#linear-gradient);
      }

      .cls-1, .cls-2, .cls-3, .cls-4 {
        stroke-width: 0px;
      }

      .cls-2 {
        fill: url(#linear-gradient-2);
      }

      .cls-3 {
        fill: url(#linear-gradient-3);
      }

      .cls-4 {
        fill: url(#linear-gradient-4);
      }
    </style>
    <linearGradient id="linear-gradient" x1="39.54" y1="70.08" x2="170.88" y2="70.08" gradientUnits="userSpaceOnUse">
      <stop offset="0" stop-color="#00aeef"/>
      <stop offset=".34" stop-color="#00a6d8"/>
      <stop offset="1" stop-color="#0099b0"/>
    </linearGradient>
    <linearGradient id="linear-gradient-2" x1="0" y1="142.72" x2="250" y2="142.72" gradientUnits="userSpaceOnUse">
      <stop offset="0" stop-color="#6f60aa"/>
      <stop offset=".52" stop-color="#3d307d"/>
      <stop offset="1" stop-color="#150958"/>
    </linearGradient>
    <linearGradient id="linear-gradient-3" x1="64.42" y1="43.39" x2="127.51" y2="43.39" gradientUnits="userSpaceOnUse">
      <stop offset="0" stop-color="#00b6f1"/>
      <stop offset=".19" stop-color="rgba(0, 180, 240, .83)" stop-opacity=".83"/>
      <stop offset=".62" stop-color="rgba(0, 177, 239, .4)" stop-opacity=".4"/>
      <stop offset="1" stop-color="#00aeef" stop-opacity="0"/>
    </linearGradient>
    <linearGradient id="linear-gradient-4" x1="41.07" y1="204.41" x2="67.61" y2="185.82" gradientUnits="userSpaceOnUse">
      <stop offset="0" stop-color="#826aaf"/>
      <stop offset=".25" stop-color="rgba(123, 102, 173, .67)" stop-opacity=".67"/>
      <stop offset=".5" stop-color="rgba(118, 99, 171, .38)" stop-opacity=".38"/>
      <stop offset=".71" stop-color="rgba(114, 97, 170, .17)" stop-opacity=".17"/>
      <stop offset=".89" stop-color="rgba(111, 96, 170, .05)" stop-opacity=".05"/>
      <stop offset="1" stop-color="#6f60aa" stop-opacity="0"/>
    </linearGradient>
  </defs>
  <g>
    <path class="cls-1" d="M158.24,140.16c13.21-42.84,16.03-88.78,8.6-132.98C153.76,2.54,139.68,0,125,0,91.95,0,61.89,12.84,39.54,33.79c18.25,6.15,35.75,15.65,50.99,26.22,29.77,20.64,53.08,50.84,67.71,80.15Z"/>
    <path class="cls-2" d="M212.19,35.44c-6.28,66.41-26.04,131.56-58.06,190.1C122.09,167.44,66.92,116.59,3.96,93.65c-2.59,10.02-3.96,20.52-3.96,31.35,0,69.04,55.96,125,125,125s125-55.96,125-125c0-35.12-14.49-66.85-37.81-89.56Z"/>
  </g>
  <path class="cls-3" d="M64.42,29.57s41.46,15.62,63.09,43.86c0,0-5.41-37.85-25.24-60.09,0,0-17.43,2.4-37.85,16.22Z"/>
  <path class="cls-4" d="M14.64,156.69s15.02,57.59,75.95,79.29c0,0-11.68-70.94-75.95-79.29Z"/>
</svg>