<?xml version="1.0" encoding="UTF-8"?>
<svg xmlns="http://www.w3.org/2000/svg" version="1.1" xmlns:xlink="http://www.w3.org/1999/xlink" viewBox="0 0 250 250">
  <defs>
    <style>
      .cls-1 {
        isolation: isolate;
      }

      .cls-2 {
        fill: url(#Degradado_sin_nombre_4-2);
      }

      .cls-2, .cls-3, .cls-4, .cls-5, .cls-6, .cls-7, .cls-8 {
        stroke-width: 0px;
      }

      .cls-3 {
        fill: url(#Degradado_sin_nombre_4);
      }

      .cls-4 {
        fill: url(#Degradado_sin_nombre_85);
      }

      .cls-5 {
        fill: url(#Degradado_sin_nombre_9);
      }

      .cls-5, .cls-8 {
        mix-blend-mode: overlay;
      }

      .cls-6 {
        fill: url(#Degradado_sin_nombre_87);
      }

      .cls-7 {
        fill: url(#Degradado_sin_nombre_2);
      }

      .cls-8 {
        fill: url(#Degradado_sin_nombre_9-2);
      }
    </style>
    <linearGradient id="Degradado_sin_nombre_87" data-name="Degradado sin nombre 87" x1="165.27" y1="205.29" x2="126.16" y2="86.06" gradientTransform="translate(102.37 -57.25) rotate(121.76) scale(1 -1)" gradientUnits="userSpaceOnUse">
      <stop offset="0" stop-color="#5300bf"/>
      <stop offset="1" stop-color="#300054"/>
    </linearGradient>
    <linearGradient id="Degradado_sin_nombre_4" data-name="Degradado sin nombre 4" x1="18.15" y1="104.86" x2="207.28" y2="104.86" gradientTransform="translate(102.37 -57.25) rotate(121.76) scale(1 -1)" gradientUnits="userSpaceOnUse">
      <stop offset="0" stop-color="#00d4b9"/>
      <stop offset="1" stop-color="#5300bf"/>
    </linearGradient>
    <linearGradient id="Degradado_sin_nombre_4-2" data-name="Degradado sin nombre 4" y1="94.76" x2="153.47" y2="94.76" xlink:href="#Degradado_sin_nombre_4"/>
    <linearGradient id="Degradado_sin_nombre_9" data-name="Degradado sin nombre 9" x1="60.87" y1="206.43" x2="181.57" y2="8.97" gradientTransform="translate(98.19 -56.88) rotate(119.64) scale(1 -1)" gradientUnits="userSpaceOnUse">
      <stop offset="0" stop-color="#000" stop-opacity="0"/>
      <stop offset="1" stop-color="#fff"/>
    </linearGradient>
    <linearGradient id="Degradado_sin_nombre_85" data-name="Degradado sin nombre 85" x1="265.91" y1="42.68" x2="121.13" y2="243.73" gradientTransform="translate(102.37 -57.25) rotate(121.76) scale(1 -1)" gradientUnits="userSpaceOnUse">
      <stop offset="0" stop-color="#f9a17c"/>
      <stop offset=".98" stop-color="#e122f3" stop-opacity=".8"/>
    </linearGradient>
    <linearGradient id="Degradado_sin_nombre_2" data-name="Degradado sin nombre 2" x1="133.6" y1="134.74" x2="268.17" y2="134.74" gradientTransform="translate(102.37 -57.25) rotate(121.76) scale(1 -1)" gradientUnits="userSpaceOnUse">
      <stop offset="0" stop-color="#f9a17c" stop-opacity=".7"/>
      <stop offset=".98" stop-color="#e122f3" stop-opacity=".8"/>
    </linearGradient>
    <linearGradient id="Degradado_sin_nombre_9-2" data-name="Degradado sin nombre 9" x1="119.11" y1="140" x2="239.8" y2="-57.47" gradientTransform="translate(63.25 324.13) rotate(-59.89) scale(1 -1)" xlink:href="#Degradado_sin_nombre_9"/>
  </defs>
  <g class="cls-1">
    <g id="OBJECTS">
      <g>
        <path class="cls-6" d="M234.41,182.46c9.94-20.09,12.94-42.96-.92-62.23-12.75-17.77-35.2-11.53-51.04-1.6-7.75,4.87-15.46,11.03-23.28,17.56-10.46,8.74-21.09,18.13-32.25,25.92,2.51-3.66,5.06-7.31,6.83-11.36,7.24-16.59-6.12-32.52-23.63-30.53-13.35,1.52-24.35,10.44-36.23,15.89-9.8,4.5-20.27,8.13-31.19,7.82-7.33-.21-15.91-1.95-20.92-7.44,13.12,10.06,31.76,4.09,45.43-4.63,7.71-4.94,15.37-11.16,23.13-17.75,26.84-22.81,54.79-49.97,90.35-42.71,13.49,2.75,25.34,10.2,35.17,19.66,6.35,6.12,11.85,13.08,16.77,20.39,1.29,1.9,3.49,5.75,5.86,10.03,3.01,5.44,11.35,3.11,11.06-3.1,0-.08,0-.15-.01-.22-.02-.36-.06-.71-.09-1.07,3.14,30.56-7.64,61.35-27.15,85.02-1.76,2.14-3.61,4.2-5.51,6.23,6.72-7.57,12.94-16.39,17.6-25.87Z"/>
        <path class="cls-3" d="M67.22,131.85c7.71-4.94,15.37-11.16,23.13-17.75,26.84-22.81,54.79-49.97,90.35-42.71,13.49,2.75,25.34,10.2,35.17,19.66,6.35,6.12,11.85,13.08,16.77,20.39,1.29,1.9,3.49,5.75,5.86,10.03,3.01,5.44,11.35,3.11,11.06-3.1,0-.08,0-.15-.01-.22-.24-4.61-.75-9.19-1.5-13.72-1.06-6.49-2.64-12.91-4.72-19.17-1.21-3.6-2.58-7.16-4.11-10.64-10.35-23.68-28.16-44.34-52.34-58.11C138.71-10.91,79.96-2.6,41.24,33.01c-10,9.2-19.87,21.68-26.5,35.43-9.78,20.17-12.59,43.06,1.42,62.22,12.89,17.67,35.29,11.24,51.05,1.19ZM51.28,44.9c9.49-19.46,38.2-27.97,57.85-30.61,35.04-4.7,72.68,7.78,96.28,34.69-14.11-8.94-30.49-14.69-47.39-13.54-15.96,1.09-32.69,6.9-47.25,13.24-14.35,6.25-27.15,16.8-43.21,18.17-12.46,1.06-22.02-10.19-16.28-21.95Z"/>
        <path class="cls-2" d="M47.49,87.89c6.59,1.36,14.37-.32,21.6-3.88,21.66-10.67,40.11-24.66,63.99-30.71,23.44-5.94,47.68-4.13,69.83,5.7,14.89,6.29,28.29,15.53,40.43,26.27-1.21-3.6-2.58-7.16-4.11-10.64-10.35-23.68-28.16-44.34-52.34-58.11C138.71-10.91,79.96-2.6,41.24,33.01c-9.82,9.03-11.66,27.24-8.55,39.49,2.36,9.27,7.94,13.97,14.8,15.38ZM51.28,44.9c9.49-19.46,38.2-27.97,57.85-30.61,35.04-4.7,72.68,7.78,96.28,34.69-14.11-8.94-30.49-14.69-47.39-13.54-15.96,1.09-32.69,6.9-47.25,13.24-14.35,6.25-27.15,16.8-43.21,18.17-12.46,1.06-22.02-10.19-16.28-21.95Z"/>
        <path class="cls-5" d="M67.22,131.85c7.71-4.94,15.37-11.16,23.13-17.75,26.84-22.81,54.79-49.97,90.35-42.71,13.49,2.75,25.34,10.2,35.17,19.66,6.35,6.12,11.85,13.08,16.77,20.39,1.64,2.44,4.36,5.97,7.13,10.12,2.99,4.48,10.06,2.19,9.79-3.19v-.22c-4.56-8.9-10.2-17.22-16.96-24.57-12.52-13.64-28.94-23.9-47.01-27.95-20.72-4.65-42.33-.95-61.55,7.57-21.63,9.59-38.61,26.32-59.14,37.71-7.44,4.13-15.52,7.5-24.02,8.01-8.5.51-17.5-2.18-23.13-8.56-4.81-5.45-6.71-12.98-6.67-20.25.04-7.27,1.84-14.4,3.63-21.44-9.91,19.56-11.99,43.6,1.45,62.01,12.89,17.67,35.29,11.24,51.05,1.19Z"/>
        <path class="cls-4" d="M61.85,232.99c47.95,27.81,106.76,19.98,145.77-15.31,10.07-9.12,20.05-21.51,26.79-35.21,9.94-20.09,12.94-42.96-.92-62.23-12.75-17.77-35.2-11.53-51.04-1.6-7.75,4.87-15.46,11.03-23.28,17.56-27.02,22.59-55.19,49.52-90.7,41.97-13.46-2.86-25.26-10.4-35.01-19.95-6.29-6.17-11.74-13.18-16.6-20.53-1.27-1.91-3.44-5.78-5.78-10.08-2.97-5.46-11.32-3.2-11.08,3.01,0,.08,0,.15,0,.22.2,4.61.67,9.2,1.39,13.73,1.01,6.5,2.54,12.93,4.56,19.21,1.18,3.61,2.52,7.18,4.02,10.68,10.15,23.76,27.79,44.57,51.87,58.53ZM44.2,201.02c14.11,8.94,30.49,14.69,47.39,13.54,15.96-1.09,32.69-6.9,47.25-13.24,14.35-6.25,27.15-16.8,43.21-18.17,12.46-1.06,22.02,10.19,16.28,21.95-9.49,19.46-38.2,27.97-57.85,30.61-35.04,4.7-72.68-7.78-96.28-34.69Z"/>
        <path class="cls-7" d="M61.85,232.99c47.95,27.81,106.76,19.98,145.77-15.32,9.89-8.95,11.89-27.15,8.87-39.42-2.28-9.29-7.82-14.03-14.67-15.5-6.58-1.41-14.37.2-21.63,3.71-21.74,10.5-40.31,24.33-64.23,30.18-23.49,5.75-47.72,3.74-69.78-6.27-14.84-6.41-28.16-15.76-40.21-26.6,1.18,3.61,2.52,7.18,4.02,10.68,10.15,23.76,27.79,44.57,51.87,58.53ZM44.2,201.02c14.11,8.94,30.49,14.69,47.39,13.54,15.96-1.09,32.69-6.9,47.25-13.24,14.35-6.25,27.15-16.8,43.21-18.17,12.46-1.06,22.02,10.19,16.28,21.95-9.49,19.46-38.2,27.97-57.85,30.61-35.04,4.7-72.68-7.78-96.28-34.69Z"/>
        <path class="cls-8" d="M182.45,118.62c-7.75,4.87-15.46,11.03-23.28,17.56-27.02,22.59-55.19,49.52-90.7,41.97-13.46-2.86-25.26-10.4-35.01-19.95-6.3-6.17-11.74-13.18-16.6-20.53-1.62-2.45-4.32-6.01-7.05-10.18C6.87,123-.22,125.23,0,130.61v.22c4.48,8.94,10.06,17.3,16.75,24.71,12.41,13.74,28.75,24.14,46.78,28.34,20.68,4.82,42.32,1.3,61.61-7.07,21.71-9.41,38.82-26.01,59.45-37.23,7.48-4.07,15.59-7.37,24.09-7.81,8.5-.44,17.48,2.33,23.06,8.75,4.77,5.49,6.6,13.04,6.5,20.31-.1,7.27-1.96,14.38-3.8,21.41,10.07-19.48,12.34-43.5-.95-62.02-12.75-17.77-35.2-11.53-51.04-1.6Z"/>
      </g>
    </g>
  </g>
</svg>